<svg width="41" height="40" viewBox="0 0 41 40" fill="none" xmlns="http://www.w3.org/2000/svg">
<path d="M20.6875 10.0176C15.0625 10.0176 10.5801 14.5879 10.5801 20.125C10.5801 25.75 15.0625 30.2324 20.6875 30.2324C26.2246 30.2324 30.7949 25.75 30.7949 20.125C30.7949 14.5879 26.2246 10.0176 20.6875 10.0176ZM20.6875 26.7168C17.084 26.7168 14.0957 23.8164 14.0957 20.125C14.0957 16.5215 16.9961 13.6211 20.6875 13.6211C24.291 13.6211 27.1914 16.5215 27.1914 20.125C27.1914 23.8164 24.291 26.7168 20.6875 26.7168ZM33.5195 9.66602C33.5195 8.34766 32.4648 7.29297 31.1465 7.29297C29.8281 7.29297 28.7734 8.34766 28.7734 9.66602C28.7734 10.9844 29.8281 12.0391 31.1465 12.0391C32.4648 12.0391 33.5195 10.9844 33.5195 9.66602ZM40.1992 12.0391C40.0234 8.875 39.3203 6.0625 37.0352 3.77734C34.75 1.49219 31.9375 0.789062 28.7734 0.613281C25.5215 0.4375 15.7656 0.4375 12.5137 0.613281C9.34961 0.789062 6.625 1.49219 4.25195 3.77734C1.9668 6.0625 1.26367 8.875 1.08789 12.0391C0.912109 15.291 0.912109 25.0469 1.08789 28.2988C1.26367 31.4629 1.9668 34.1875 4.25195 36.5605C6.625 38.8457 9.34961 39.5488 12.5137 39.7246C15.7656 39.9004 25.5215 39.9004 28.7734 39.7246C31.9375 39.5488 34.75 38.8457 37.0352 36.5605C39.3203 34.1875 40.0234 31.4629 40.1992 28.2988C40.375 25.0469 40.375 15.291 40.1992 12.0391ZM35.9805 31.7266C35.3652 33.4844 33.959 34.8027 32.2891 35.5059C29.6523 36.5605 23.5 36.2969 20.6875 36.2969C17.7871 36.2969 11.6348 36.5605 9.08594 35.5059C7.32812 34.8027 6.00977 33.4844 5.30664 31.7266C4.25195 29.1777 4.51562 23.0254 4.51562 20.125C4.51562 17.3125 4.25195 11.1602 5.30664 8.52344C6.00977 6.85352 7.32812 5.53516 9.08594 4.83203C11.6348 3.77734 17.7871 4.04102 20.6875 4.04102C23.5 4.04102 29.6523 3.77734 32.2891 4.83203C33.959 5.44727 35.2773 6.85352 35.9805 8.52344C37.0352 11.1602 36.7715 17.3125 36.7715 20.125C36.7715 23.0254 37.0352 29.1777 35.9805 31.7266Z" fill="#D98F38"/>
</svg>
