<svg width="101" height="90" viewBox="0 0 101 90" fill="none" xmlns="http://www.w3.org/2000/svg">
<g clip-path="url(#clip0)">
<path d="M90.1328 23.4748C89.5671 24.0546 89.5801 24.9816 90.1611 25.5462C90.7422 26.1115 91.6718 26.0978 92.2368 25.518L96.9402 20.6962C97.5052 20.1171 97.493 19.1894 96.9119 18.6248C96.3309 18.061 95.4012 18.0732 94.8362 18.653L90.1328 23.4748Z" fill="black"/>
<path d="M96.9116 55.626C97.4927 55.0621 97.5049 54.1344 96.9399 53.5546L92.2365 48.7328C91.6715 48.1537 90.7419 48.1407 90.1608 48.7053C89.5798 49.2691 89.5676 50.1969 90.1325 50.7767L94.8359 55.5985C95.4017 56.1776 96.3306 56.1905 96.9116 55.626Z" fill="black"/>
<path d="M92.4141 37.1253C92.4141 37.9348 93.0708 38.5909 93.882 38.5909H98.5853C99.3957 38.5909 100.053 37.9348 100.053 37.1253C100.053 36.3166 99.3957 35.6605 98.5853 35.6605H93.882C93.0708 35.6605 92.4141 36.3166 92.4141 37.1253Z" fill="black"/>
<path d="M7.66343 25.5187C8.22842 26.0986 9.15809 26.1108 9.73913 25.5462C10.3202 24.9816 10.3324 24.0547 9.76665 23.4748L5.06173 18.653C4.49598 18.0732 3.56631 18.061 2.98603 18.6256C2.40499 19.1901 2.39276 20.1179 2.95774 20.697L7.66343 25.5187Z" fill="black"/>
<path d="M7.66343 48.7327L2.95774 53.5545C2.39276 54.1343 2.40499 55.0621 2.98603 55.6259C3.56708 56.1905 4.49598 56.1782 5.06173 55.5984L9.76665 50.7766C10.3324 50.1975 10.3202 49.2698 9.73913 48.7052C9.15809 48.1406 8.22918 48.1529 7.66343 48.7327Z" fill="black"/>
<path d="M1.31262 38.591H6.01831C6.82871 38.591 7.48621 37.9348 7.48621 37.1261C7.48621 36.3166 6.82871 35.6613 6.01831 35.6613H1.31262C0.501458 35.6613 -0.155273 36.3166 -0.155273 37.1261C-0.155273 37.9348 0.501458 38.591 1.31262 38.591Z" fill="black"/>
<path d="M11.0384 38.0501L46.9056 82.0817C47.654 82.9995 48.7626 83.5259 49.9484 83.5259C51.1166 83.5259 52.232 83.0125 52.9912 82.0809L52.992 82.0802L72.5273 58.0979C73.0387 57.47 72.9432 56.5476 72.314 56.0372C71.6848 55.526 70.7597 55.6221 70.249 56.2493L54.6564 75.3914L62.9531 38.5902H84.6336L74.5716 50.9438C74.0602 51.5709 74.155 52.4941 74.7842 53.0045C75.4134 53.5149 76.3385 53.4195 76.8492 52.7916L88.8492 38.0607C89.3515 37.4412 89.2544 36.5921 88.7628 36.0954L71.0043 18.1739C69.9623 17.1226 68.5578 16.6015 67.2306 16.6015H63.476C62.6648 16.6015 62.0073 17.2576 62.0073 18.0663C62.0073 18.8751 62.6648 19.5312 63.476 19.5312H66.6396L61.4737 33.6807L53.2527 19.5312H56.625C57.4362 19.5312 58.0929 18.8751 58.0929 18.0663C58.0929 17.2576 57.4362 16.6015 56.625 16.6015H32.6662C31.2304 16.6015 29.8588 17.1981 28.8917 18.1739L11.134 36.0954C10.6355 36.5989 10.5521 37.4519 11.0384 38.0501ZM30.5477 20.6703L36.0209 35.6605H15.6936L30.5477 20.6703ZM36.9437 38.591L45.2404 75.3922L15.2624 38.591H36.9437ZM50.5134 80.42C50.1785 80.6611 49.6816 80.6428 49.3834 80.42L39.9537 38.591H59.9439L50.5134 80.42ZM69.3491 20.6703L84.2032 35.6613H63.8758L69.3491 20.6703ZM40.6662 35.6605L49.9484 19.6845L59.2306 35.6605H40.6662ZM38.4231 33.6807L33.2572 19.5312H46.6433L38.4231 33.6807Z" fill="black"/>
<path d="M11.0384 38.0501L46.9056 82.0817C47.654 82.9995 48.7626 83.5259 49.9484 83.5259C51.1166 83.5259 52.232 83.0125 52.9912 82.0809L52.992 82.0802L72.5273 58.0979C73.0387 57.47 72.9432 56.5476 72.314 56.0372C71.6848 55.526 70.7597 55.6221 70.249 56.2493L54.6564 75.3914L62.9531 38.5902H84.6336L74.5716 50.9438C74.0602 51.5709 74.155 52.4941 74.7842 53.0045C75.4134 53.5149 76.3385 53.4195 76.8492 52.7916L88.8492 38.0607C89.3515 37.4412 89.2544 36.5921 88.7628 36.0954L71.0043 18.1739C69.9623 17.1226 68.5578 16.6015 67.2306 16.6015H63.476C62.6648 16.6015 62.0073 17.2576 62.0073 18.0663C62.0073 18.8751 62.6648 19.5312 63.476 19.5312H66.6396L61.4737 33.6807L53.2527 19.5312H56.625C57.4362 19.5312 58.0929 18.8751 58.0929 18.0663C58.0929 17.2576 57.4362 16.6015 56.625 16.6015H32.6662C31.2304 16.6015 29.8588 17.1981 28.8917 18.1739L11.134 36.0954C10.6355 36.5989 10.5521 37.4519 11.0384 38.0501ZM30.5477 20.6703L36.0209 35.6605H15.6936L30.5477 20.6703ZM36.9437 38.591L45.2404 75.3922L15.2624 38.591H36.9437ZM50.5134 80.42C50.1785 80.6611 49.6816 80.6428 49.3834 80.42L39.9537 38.591H59.9439L50.5134 80.42ZM69.3491 20.6703L84.2032 35.6613H63.8758L69.3491 20.6703ZM40.6662 35.6605L49.9484 19.6845L59.2306 35.6605H40.6662ZM38.4231 33.6807L33.2572 19.5312H46.6433L38.4231 33.6807Z" stroke="black"/>
</g>
<defs>
<clipPath id="clip0">
<rect width="100.208" height="90" fill="white" transform="translate(0.0400391)"/>
</clipPath>
</defs>
</svg>
