<svg width="92" height="90" viewBox="0 0 92 90" fill="none" xmlns="http://www.w3.org/2000/svg">
<path d="M74.1972 39.365C74.2002 39.1941 74.1989 39.4968 74.1989 34.5853C74.1989 26.2318 47.9127 22.9577 29.0141 25.3537C28.2885 25.4453 27.7747 26.1061 27.8665 26.8301C27.9583 27.554 28.6222 28.0685 29.346 27.9754C40.5781 26.5556 55.8254 27.082 65.3188 30.292C69.9143 31.8443 71.5507 33.5283 71.5507 34.5855C71.5507 35.5141 70.3784 36.6309 68.3341 37.6509C64.9726 39.3296 59.5474 40.6477 53.0594 41.3627C32.7372 43.5899 12.2529 39.0579 12.2529 34.5851C12.2529 33.4276 14.1384 31.6112 19.4295 29.9886C20.8665 29.5481 22.4767 29.1482 24.2139 28.8012C24.9306 28.6584 25.395 27.9625 25.2519 27.2474C25.1071 26.5304 24.4098 26.0671 23.693 26.2114C18.8137 27.1824 9.60469 29.6365 9.60469 34.5851C9.79933 36.1033 7.83123 55.9173 19.3341 70.6241C13.9577 71.542 2.04688 74.0123 2.04688 79.4382C2.04688 89.7629 46.6649 92.8224 70.0078 87.264C78.2331 85.3068 82.4048 82.6727 82.4048 79.4382C82.4048 73.901 70.0198 71.4352 64.5508 70.5271C65.0963 69.8243 65.6242 69.0878 66.1308 68.3214C77.9167 67.7126 86.4139 62.5374 89.5088 51.0736C92.3741 40.4543 80.9073 33.6825 74.1972 39.365ZM86.9526 50.3849C86.0186 53.8434 83.2681 64.0194 67.8116 65.547C67.967 65.2686 68.1188 64.9868 68.2689 64.7013C68.6078 64.0548 68.3589 63.2565 67.711 62.9183C67.0632 62.5784 66.2633 62.8285 65.9226 63.475C61.8367 71.2657 54.8631 78.117 46.0189 78.117H37.7849C35.2091 78.117 32.6528 77.5181 30.1864 76.334C29.5279 76.0169 28.737 76.2936 28.4191 76.9507C28.1031 77.6095 28.3803 78.3991 29.0388 78.7145C32.8615 80.5516 35.9392 80.7992 39.1937 80.7783H46.0187C52.44 80.7783 58.1731 77.5501 62.5381 72.8864C64.9973 73.251 67.296 73.6862 69.3932 74.1849C77.5743 76.1317 79.7564 78.4042 79.7564 79.4383C79.7564 80.4742 77.5743 82.7469 69.3932 84.6937C54.4078 88.2591 30.0521 88.2612 15.0581 84.6937C6.8788 82.7469 4.69491 80.4742 4.69491 79.4383C4.69491 78.4042 6.8788 76.1315 15.0581 74.1849C16.9948 73.7233 19.1028 73.3181 21.3501 72.9727C22.2946 73.9734 23.2868 74.893 24.3249 75.7244C24.5685 75.9199 24.8616 76.0152 25.1529 76.0152C26.3974 76.0152 26.9574 74.4449 25.9828 73.6649C11.7065 62.191 12.3375 39.3423 12.2529 38.8065C22.9743 46.5323 60.9034 46.4393 71.5507 38.8083C71.5065 39.3165 71.9208 48.6883 68.0339 58.7973C67.7727 59.4792 68.1134 60.2438 68.7949 60.5045C69.4808 60.7661 70.2451 60.4247 70.5056 59.7451C72.317 55.0359 73.4875 49.8402 73.9606 44.4846C74.794 41.2606 78.0918 39.298 81.3331 40.1084C85.3185 41.1021 88.3899 45.0726 86.9526 50.3849Z" fill="black"/>
<path d="M34.9236 11.2232C34.9236 9.4137 36.6585 9.12946 36.6585 6.26404C36.6585 5.53419 36.0656 4.94269 35.3344 4.94269C34.6032 4.94269 34.0103 5.53419 34.0103 6.26404C34.0103 8.07336 32.2756 8.3576 32.2754 11.2232C32.2754 12.8785 32.9146 13.7923 33.3812 14.4593C33.7735 15.0199 34.0103 15.3583 34.0103 16.1824C34.0103 17.9915 32.2756 18.2757 32.2754 21.141C32.2756 21.8707 32.8683 22.4623 33.5995 22.4623C34.3307 22.4623 34.9236 21.8708 34.9236 21.141C34.9236 19.3338 36.6585 19.0476 36.6585 16.1824C36.6585 14.527 36.0194 13.6135 35.5526 12.9466C35.1603 12.3858 34.9236 12.0474 34.9236 11.2232Z" fill="black"/>
<path d="M50.4198 12.9466C50.0275 12.3858 49.7908 12.0474 49.7908 11.2232C49.7908 9.4137 51.5255 9.12946 51.5255 6.26404C51.5255 5.53419 50.9328 4.94269 50.2014 4.94269C49.47 4.94269 48.8773 5.53419 48.8773 6.26404C48.8773 8.07336 47.1426 8.3576 47.1426 11.2232C47.1426 12.8785 47.7816 13.7923 48.2484 14.4592C48.6407 15.0199 48.8775 15.3583 48.8775 16.1824C48.8775 17.9915 47.1428 18.2757 47.1428 21.141C47.1428 21.8708 47.7355 22.4623 48.4669 22.4623C49.1982 22.4623 49.791 21.8708 49.791 21.141C49.791 19.3318 51.5257 19.0476 51.5257 16.1824C51.5257 14.5272 50.8866 13.6137 50.4198 12.9466Z" fill="black"/>
<path d="M44.0921 1.32135C44.0921 0.591506 43.4992 0 42.768 0C42.0368 0 41.4439 0.591506 41.4439 1.32135C41.4439 4.07006 39.709 4.27853 39.709 7.86765C39.709 11.4107 41.4439 11.7124 41.4439 14.4141C41.4439 17.1373 39.709 17.3854 39.709 20.9597C39.709 21.6894 40.3019 22.2811 41.0331 22.2811C41.7643 22.2811 42.3572 21.6896 42.3572 20.9597C42.3572 18.2112 44.0921 18.0029 44.0921 14.4141C44.0921 10.8709 42.3572 10.5692 42.3572 7.86765C42.357 5.11842 44.0921 4.91082 44.0921 1.32135Z" fill="black"/>
</svg>
