<svg width="91" height="90" viewBox="0 0 91 90" fill="none" xmlns="http://www.w3.org/2000/svg">
<g clip-path="url(#clip0)">
<path d="M63.1901 52.6896C58.5243 48.1964 52.3632 45.7217 45.8423 45.7217C39.32 45.7217 33.1583 48.1971 28.4924 52.6917C27.6317 53.5207 26.8252 54.4165 26.0952 55.3535C24.386 57.5496 24.5904 60.7006 26.5693 62.6896C26.5727 62.693 26.5761 62.6964 26.5796 62.6999C27.6303 63.7504 29.0257 64.329 30.5078 64.329C32.2487 64.329 33.8684 63.5392 34.9514 62.1612C35.2907 61.7291 35.6615 61.3115 36.053 60.9207C38.6615 58.3126 42.1377 56.876 45.8423 56.876C49.5462 56.876 53.0231 58.3126 55.6316 60.92C56.0217 61.3108 56.3926 61.7284 56.7332 62.1612C57.8163 63.5385 59.4353 64.329 61.1761 64.329H61.1768C62.6589 64.329 64.0544 63.7504 65.1044 62.6999C65.1085 62.6964 65.1119 62.693 65.1154 62.6896C67.0943 60.7006 67.2987 57.5496 65.5888 55.3535C64.8587 54.4158 64.0516 53.52 63.1901 52.6896ZM63.2369 60.8313C63.2342 60.834 63.2314 60.8368 63.2294 60.8396C62.6782 61.3865 61.9495 61.6878 61.1761 61.6878C60.2514 61.6878 59.3892 61.2654 58.8098 60.5286C58.4046 60.0133 57.9635 59.5165 57.4991 59.0528C54.3924 55.9452 50.2522 54.2349 45.8423 54.2349C41.4317 54.2349 37.2923 55.9459 34.1849 59.0528C33.7191 59.5186 33.2787 60.0147 32.8741 60.5293C32.2954 61.2654 31.4333 61.6878 30.5078 61.6878C29.7344 61.6878 29.0064 61.3865 28.4553 60.8396C28.4525 60.8375 28.4498 60.8347 28.4477 60.832C27.3998 59.7842 27.2849 58.1268 28.1801 56.9765C28.833 56.1385 29.5548 55.337 30.3255 54.594C34.4966 50.5761 40.0074 48.3636 45.8423 48.3636C51.6765 48.3636 57.1867 50.5754 61.3571 54.5926C62.1284 55.3356 62.8509 56.1378 63.5039 56.9765C64.3998 58.1268 64.2849 59.7842 63.2369 60.8313Z" fill="black"/>
<path d="M45.8424 62.7515C43.7169 62.7515 41.718 63.5791 40.2153 65.0817C38.7125 66.5843 37.8848 68.5822 37.8848 70.7074C37.8848 72.8326 38.7125 74.8312 40.2153 76.3338C41.718 77.8363 43.7169 78.664 45.8424 78.664C47.9679 78.664 49.966 77.8363 51.4688 76.3338C54.5713 73.2316 54.5713 68.1838 51.4688 65.0817C49.966 63.5791 47.9679 62.7515 45.8424 62.7515ZM49.6007 74.4659C48.5968 75.4696 47.2619 76.0228 45.8424 76.0228C44.4222 76.0228 43.0873 75.4696 42.0834 74.4659C41.0795 73.4621 40.5263 72.1274 40.5263 70.7081C40.5263 69.2881 41.0795 67.9534 42.0834 66.9496C43.0873 65.9458 44.4222 65.3927 45.8424 65.3927C47.2619 65.3927 48.5968 65.9458 49.6007 66.9496C51.6732 69.0218 51.6732 72.3936 49.6007 74.4659Z" fill="black"/>
<path d="M89.4771 30.815C88.886 30.169 88.2695 29.5243 87.6447 28.8996C79.0472 20.3067 68.2292 14.6307 56.3599 12.4863C44.7582 10.3907 32.9336 11.7763 22.1645 16.4952C21.4964 16.7883 21.1915 17.5671 21.4847 18.2351C21.7778 18.9032 22.5567 19.2079 23.2248 18.9148C44.6357 9.53343 69.1891 14.1863 85.7766 30.7682C86.3739 31.3654 86.9635 31.9811 87.5285 32.5983C88.586 33.7534 88.5392 35.5325 87.4225 36.6491C86.8466 37.2243 86.08 37.5339 85.2681 37.5133C84.4651 37.4954 83.7254 37.1617 83.1867 36.5721C82.6796 36.0183 82.1525 35.4672 81.6199 34.9347C72.0852 25.4012 59.3799 20.1519 45.8419 20.1519C45.8412 20.1519 45.8392 20.1519 45.8385 20.1519C32.2992 20.1525 19.5924 25.4046 10.0591 34.9395C9.52655 35.4727 9.00086 36.0217 8.49719 36.5721C7.95774 37.1617 7.21874 37.4961 6.41575 37.5133C5.59832 37.5325 4.8373 37.2243 4.26138 36.6491C3.14463 35.5325 3.09784 33.7534 4.15473 32.599C4.71826 31.9832 5.30657 31.3688 5.90245 30.773C9.766 26.9093 14.1284 23.6393 18.8665 21.0538C19.5071 20.7043 19.7431 19.9021 19.3936 19.2616C19.044 18.6218 18.2417 18.3851 17.6011 18.7353C12.6408 21.4411 8.07609 24.8632 4.03363 28.9051C3.41092 29.5285 2.79577 30.171 2.20609 30.815C0.192087 33.0152 0.273968 36.398 2.39325 38.517C3.45358 39.5765 4.85244 40.1558 6.34626 40.1558C6.38823 40.1558 6.43158 40.1551 6.47424 40.1545C8.00521 40.1207 9.41577 39.4816 10.4465 38.3554C10.924 37.8332 11.4222 37.3124 11.9273 36.8074C20.9617 27.7713 33.0051 22.7944 45.8385 22.7937H45.8419C58.6732 22.7937 70.7166 27.7686 79.7518 36.8026C80.2568 37.3076 80.7571 37.8304 81.2374 38.3554C82.2681 39.4816 83.6786 40.1207 85.2096 40.1545C86.7344 40.1875 88.2158 39.591 89.2906 38.517C91.4092 36.398 91.4918 33.0152 89.4771 30.815Z" fill="black"/>
<path d="M74.8511 40.2439C67.693 33.4218 58.2938 29.34 48.3841 28.7497C47.6548 28.707 47.03 29.2615 46.9867 29.9894C46.9433 30.718 47.4986 31.3434 48.2273 31.3867C57.5143 31.9399 66.3216 35.7637 73.0283 42.1558C73.8774 42.9656 74.6983 43.8194 75.4676 44.6938C76.4935 45.86 76.4391 47.6309 75.3437 48.7261C74.7637 49.3054 73.9951 49.6102 73.1742 49.5841C72.3485 49.5572 71.5916 49.2002 71.0439 48.5768C70.4412 47.8916 69.8013 47.2215 69.1428 46.5844C62.8806 40.5336 54.6057 37.2016 45.8424 37.2009H45.8417C37.079 37.2009 28.8042 40.5329 22.542 46.583C21.8814 47.2208 21.2415 47.8916 20.6388 48.5768C20.0911 49.2002 19.3349 49.5572 18.5085 49.5841C17.6897 49.6116 16.919 49.3054 16.339 48.7254C15.2449 47.6315 15.183 45.8682 16.1986 44.7124C16.7126 44.1269 17.2514 43.549 17.8005 42.9945C24.6207 36.0967 33.7329 31.975 43.4582 31.3888C44.1862 31.3448 44.7408 30.7187 44.6974 29.9908C44.6534 29.2629 44.0279 28.7063 43.2992 28.7517C32.923 29.3771 23.2005 33.7761 15.922 41.1369C15.3371 41.7286 14.7626 42.345 14.2135 42.969C12.2814 45.1685 12.3949 48.5177 14.4708 50.5933C15.5291 51.6508 16.9204 52.2266 18.408 52.2266C18.47 52.2266 18.5319 52.2259 18.5938 52.2239C20.1344 52.1743 21.6035 51.4808 22.6232 50.3209C23.1785 49.6886 23.7688 49.0701 24.3778 48.4826C36.2141 37.0475 55.472 37.0482 67.307 48.484C67.9146 49.0708 68.5042 49.6886 69.0602 50.3209C70.0799 51.4808 71.549 52.1743 73.0896 52.2239C74.6481 52.2741 76.1102 51.6948 77.2119 50.5933C79.2899 48.5156 79.3944 45.1575 77.4513 42.9484C76.6311 42.0169 75.7566 41.1067 74.8511 40.2439Z" fill="black"/>
</g>
<defs>
<clipPath id="clip0">
<rect width="90.1875" height="90" fill="white" transform="translate(0.748047)"/>
</clipPath>
</defs>
</svg>
