<svg width="184" height="45" fill="none" xmlns="http://www.w3.org/2000/svg"><path d="M20.078 20.818c0 4.794-3.367 7.764-10.26 7.764a39.885 39.885 0 0 1-9.494-1.217l1.325-4.111c1.702.418 5.078 1.141 8.09 1.141 3.717 0 5.298-1.294 5.298-3.88v-.885c0-2.817-1.161-3.463-4.144-3.463h-3.32c-5.079 0-7.006-2.854-7.006-7.23v-.801C.567 3.268 3.658.64 8.774.64h.929c3.215.042 6.422.309 9.6.799l-.928 4.077c-2.87-.42-6.39-.723-8.246-.723H9.122c-2.671 0-3.6 1.217-3.6 3.319v.685c0 1.788.543 2.777 2.98 2.777h3.64c5.264 0 7.936 2.133 7.936 7.46v1.784ZM36.513 4.651l.357.221c1.344.8 2.687 1.603 4.03 2.41v-2.65c-1.462.011-2.924.018-4.387.02ZM40.899 21.732v-3.54c-1.494-.854-2.986-1.712-4.477-2.574l-1.817-1.057v3.567a632.328 632.328 0 0 1 6.294 3.604ZM39.482 24.632a887.824 887.824 0 0 1-4.88-2.794v2.8c1.634-.005 3.26-.007 4.88-.006ZM36.302 11.789c1.534.873 3.066 1.753 4.597 2.64V10.98a5932.793 5932.793 0 0 1-6.294-3.648v3.469l1.658.958.04.029ZM75.376.649l-7.604 17.52L60.132.65h-4.71c.64 1.402 1.278 2.804 1.914 4.203 1.273 2.803 2.534 5.612 3.782 8.428l4.941 10.956H69.3l7.308-16.118v20.408h4.659V.65h-5.89ZM95.585 28.526V.65h10.836c6.654 0 8.937 1.752 8.937 7.593v2.876c0 5.14-2.552 7.242-8.705 7.242h-6.076v10.166h-4.992Zm14.744-20.284c0-2.655-.543-3.505-4.18-3.505h-5.572v9.538h5.581c3.559 0 4.18-.738 4.18-3.23l-.009-2.803ZM129.364 28.526V.65h5.853V24.36h14.018v4.166h-19.871ZM183.014.649h-19.87v4.217h19.87V.649ZM183.014 12.543h-19.87v4.164h19.87v-4.164ZM183.014 24.367h-19.87v4.16h19.87v-4.16Z" fill="#fff"/><path d="M41.513.649h-7.527v4.035h7.527V.65ZM41.513 24.614h-7.527v3.91h7.527v-3.91ZM33.986 36.628h3.343c1.395 0 2.053.764 2.053 1.963 0 .83-.357 1.465-.91 1.648v.014c.731.15 1.195.818 1.195 1.73 0 1.36-.65 2.236-1.971 2.236h-3.71v-7.59Zm3.588 3.266c.689 0 1.126-.442 1.126-1.166 0-.723-.413-1.153-1.435-1.153H34.75v2.32h2.824Zm-.08 3.379c1.04 0 1.469-.543 1.469-1.386 0-.69-.52-1.141-1.325-1.141h-2.87v2.527h2.727ZM51.196 42.419h-4.089l-.761 1.798h-.837l3.245-7.589h.861l3.246 7.59h-.901l-.764-1.8Zm-.355-.854-1.68-3.968h-.018l-1.678 3.968h3.376ZM58.91 36.628h3.358c1.614 0 2.354.854 2.354 2.193 0 .885-.373 1.569-1.022 1.788v.022c.688.186.989.885.989 1.96v1.626h-.762v-1.626c0-.967-.373-1.465-1.225-1.465h-2.926v3.098h-.766v-7.596Zm3.553 3.647c.973 0 1.446-.52 1.446-1.328 0-.84-.504-1.372-1.747-1.372h-2.486v2.7h2.786ZM70.996 36.628h3.343c1.395 0 2.053.764 2.053 1.963 0 .83-.358 1.465-.91 1.648v.014c.731.15 1.195.818 1.195 1.73 0 1.36-.65 2.236-1.972 2.236h-3.709v-7.59Zm3.59 3.266c.689 0 1.126-.442 1.126-1.166 0-.723-.413-1.153-1.435-1.153H71.76v2.32h2.826Zm-.09 3.379c1.04 0 1.468-.543 1.468-1.386 0-.69-.52-1.141-1.325-1.141h-2.87v2.527h2.727ZM87.738 43.273h-4.1v-2.434h.016V37.575h4.1v-.947h-4.858v7.59h4.858c-.014-.308-.014-.625-.016-.945ZM94.002 36.628h3.358c1.614 0 2.354.854 2.354 2.193 0 .885-.374 1.569-1.023 1.788v.022c.69.186.99.885.99 1.96v1.626h-.762v-1.626c0-.967-.373-1.465-1.226-1.465h-2.93v3.098h-.761v-7.596Zm3.546 3.647c.973 0 1.444-.52 1.444-1.328 0-.84-.502-1.372-1.745-1.372h-2.483v2.7h2.784ZM105.937 41.669h.714c0 .796.284 1.74 2.223 1.74 1.938 0 2.305-.678 2.305-1.45a.839.839 0 0 0-.561-.886c-.422-.161-1.338-.185-1.987-.232-.691-.046-1.623-.126-2.078-.414-.397-.254-.649-.807-.649-1.5 0-1.327.934-2.445 2.93-2.445 2.385 0 2.848 1.257 2.848 2.618h-.715c0-1.003-.442-1.673-2.133-1.673-1.486 0-2.168.556-2.168 1.42a.84.84 0 0 0 .464.841c.373.197 1.346.241 1.956.277.728.046 1.589.093 2.075.334.486.241.779.843.779 1.58 0 1.12-.461 2.469-3.066 2.469-2.636.009-2.937-1.686-2.937-2.68ZM118.19 36.628h.773v3.195h4.787v-3.195h.764v7.59h-.764v-3.523h-4.787v3.516h-.773v-7.583ZM130.702 40.39c0-2.18 1.144-3.899 3.391-3.899 2.248 0 3.392 1.72 3.392 3.899 0 2.236-1.071 3.967-3.392 3.967-2.256 0-3.391-1.615-3.391-3.967Zm6.021 0c0-1.662-.883-2.954-2.63-2.954-1.746 0-2.629 1.292-2.629 2.954 0 1.82.883 3.02 2.629 3.02 1.793 0 2.63-1.29 2.63-3.02ZM143.273 36.628h3.451c1.665 0 2.511.923 2.511 2.563 0 1.639-.82 2.56-2.467 2.56h-2.675v2.466h-.82v-7.589Zm3.365 4.268c1.203 0 1.795-.53 1.795-1.672 0-1.084-.514-1.649-1.821-1.649h-2.519v3.32l2.545.001Z" fill="#fff"/><path d="M87.735 39.923h-4.122v.931h4.12c0-.31 0-.621.002-.931Z" fill="#fff"/></svg>